<?xml version="1.0" standalone="no"?>
<!DOCTYPE svg PUBLIC "-//W3C//DTD SVG 20010904//EN"
 "http://www.w3.org/TR/2001/REC-SVG-20010904/DTD/svg10.dtd">
<svg version="1.0" xmlns="http://www.w3.org/2000/svg"
 width="385.000000pt" height="385.000000pt" viewBox="0 0 385.000000 385.000000"
 preserveAspectRatio="xMidYMid meet">
<metadata>
Created by potrace 1.11, written by Peter Selinger 2001-2013
</metadata>
<g transform="translate(0.000000,385.000000) scale(0.100000,-0.100000)"
fill="#000000" stroke="none">
<path d="M2091 3803 c-17 -25 -31 -50 -31 -53 0 -4 9 -19 20 -33 11 -14 17
-28 13 -30 -5 -3 -40 -10 -80 -16 -89 -14 -121 -25 -155 -58 -16 -16 -31 -22
-40 -17 -7 4 -10 3 -5 -1 4 -5 0 -17 -10 -27 -9 -10 -12 -18 -8 -18 4 0 0 -9
-9 -19 -38 -42 11 -66 54 -27 14 12 34 29 45 37 19 14 19 14 0 -13 -11 -15
-23 -28 -27 -28 -4 0 -20 -28 -37 -62 -33 -69 -119 -164 -106 -118 7 29 3 24
-47 -53 -48 -73 -59 -74 -18 -2 29 52 30 55 11 52 -12 -2 -32 -18 -46 -37 -14
-19 -25 -30 -25 -25 0 17 -37 -59 -54 -112 -19 -58 -32 -71 -22 -23 5 27 3 29
-12 21 -9 -5 -33 -25 -51 -45 l-35 -36 30 0 29 0 -32 -20 c-64 -39 -31 -27 73
26 179 91 244 146 290 240 13 29 32 58 41 65 9 8 5 -4 -10 -26 -15 -22 -27
-47 -27 -56 0 -26 -86 -218 -123 -273 -58 -86 -117 -157 -140 -166 -15 -5 -30
-3 -45 6 -20 13 -23 13 -28 -3 -18 -52 -55 -123 -83 -157 -59 -73 -30 -61 45
19 52 55 70 69 58 46 -31 -56 -140 -166 -214 -217 -38 -26 -68 -49 -65 -52 2
-2 27 12 55 32 27 20 52 36 54 36 28 0 -64 -204 -122 -272 -21 -24 -44 -52
-52 -63 -14 -19 -14 -19 5 -5 38 27 140 113 153 129 29 36 9 -10 -23 -50 -55
-70 -161 -140 -365 -241 -92 -46 -90 -60 5 -29 112 37 132 46 181 90 97 85 87
61 -21 -50 -99 -102 -116 -125 -162 -219 -28 -58 -57 -130 -64 -160 -6 -30
-19 -60 -27 -66 -23 -17 -72 0 -102 35 -18 20 -44 34 -90 46 -36 9 -78 25 -95
35 -16 9 -43 20 -60 23 -27 5 -27 4 7 -11 21 -9 38 -21 38 -26 0 -18 -67 5
-118 41 -64 44 -102 91 -102 126 0 14 -4 28 -10 32 -6 3 -6 15 0 30 6 15 6 27
0 30 -17 11 -11 22 20 35 17 7 30 16 30 20 0 26 -112 93 -228 137 -36 13 -77
30 -93 39 l-29 15 0 -406 c0 -433 0 -433 45 -345 26 51 73 108 94 115 11 3 49
-6 86 -21 52 -21 64 -29 51 -36 -11 -6 -14 -17 -10 -32 6 -26 -30 -56 -68 -56
-21 0 -88 -39 -88 -51 0 -3 14 -10 32 -15 l32 -9 -29 -29 c-17 -15 -56 -39
-87 -53 l-58 -26 0 -359 0 -359 27 14 c16 8 39 18 51 22 22 6 23 5 17 -17 -4
-12 -13 -30 -20 -38 -7 -8 -27 -39 -45 -69 l-31 -54 28 18 c38 24 138 98 191
140 54 44 87 53 111 31 19 -17 106 -23 115 -7 3 5 15 11 26 14 11 3 18 1 14
-4 -3 -5 -10 -9 -15 -9 -13 0 -129 -82 -129 -91 0 -15 74 -14 146 3 43 10 79
16 82 14 2 -3 -7 -19 -22 -36 -46 -55 -38 -59 71 -33 64 15 73 20 82 45 6 16
14 27 19 24 12 -7 239 40 285 59 20 8 37 19 37 24 0 5 3 16 6 25 5 12 -4 12
-58 -5 -56 -17 -114 -26 -80 -12 25 10 11 22 -18 16 -39 -7 -37 9 5 48 17 16
24 29 18 29 -7 0 -13 9 -13 20 0 17 -7 20 -40 20 -36 0 -40 3 -40 25 0 14 3
25 8 25 4 0 13 13 20 30 8 16 18 30 24 30 5 0 23 10 40 21 28 20 41 21 216 20
150 -1 193 2 216 14 15 8 45 15 66 15 21 0 43 7 50 15 20 24 30 18 30 -19 0
-39 -22 -97 -45 -116 -11 -9 -12 -16 -5 -25 6 -7 7 -15 3 -17 -4 -2 -28 -25
-53 -52 l-45 -50 43 35 c24 19 57 45 75 59 26 21 30 22 24 6 -15 -38 -28 -211
-18 -241 8 -27 9 -24 10 26 1 30 8 79 17 108 8 29 13 60 10 68 -3 8 -2 11 3 8
5 -3 13 4 16 16 4 13 2 25 -5 29 -7 4 -11 13 -8 21 6 17 42 -60 40 -86 -1 -16
1 -17 8 -5 9 13 10 13 11 0 1 -8 1 -20 0 -25 0 -6 11 -24 24 -40 l26 -30 -17
40 c-8 22 -24 63 -35 90 -21 55 -23 56 35 -20 15 -19 15 -19 9 5 l-5 25 16
-22 c10 -13 21 -23 26 -23 5 0 -11 29 -35 64 -41 58 -85 166 -85 208 0 10 -10
20 -25 24 -29 7 -65 48 -65 75 0 9 13 28 30 41 27 21 29 27 21 56 -5 18 -13
67 -16 110 l-7 77 31 0 c25 0 31 -4 31 -22 0 -21 -10 -28 -32 -24 -12 2 -10
-12 16 -73 20 -51 24 -55 29 -35 4 13 7 50 7 82 0 38 4 57 13 58 6 1 46 1 87
1 l75 0 -72 8 c-39 4 -77 11 -83 15 -7 4 -43 8 -80 9 -52 1 -75 6 -96 22 -32
23 -37 34 -26 52 7 10 21 7 63 -15 30 -15 63 -34 74 -42 11 -9 4 2 -16 24 -20
22 -49 63 -63 90 -23 44 -25 41 -9 -15 3 -8 -27 18 -66 59 -39 40 -74 84 -77
97 -7 25 24 94 77 171 21 31 29 53 29 87 l0 45 35 -15 c19 -8 35 -12 35 -10 0
2 -16 13 -35 25 l-35 20 0 78 0 78 65 75 c35 41 69 90 76 108 17 52 19 33 4
-41 -17 -84 -60 -164 -100 -189 -19 -11 -24 -18 -13 -18 9 0 32 18 50 39 31
37 55 94 89 211 l13 45 9 -55 c11 -60 12 -59 23 15 l7 50 10 -50 c15 -78 12
-135 -11 -203 -26 -77 -77 -175 -104 -199 -21 -18 -21 -18 -4 14 9 18 30 56
47 84 16 28 28 53 25 56 -2 2 -21 -26 -42 -63 -31 -56 -39 -64 -45 -48 -6 15
-8 12 -8 -13 -1 -49 -9 -61 -37 -55 -22 4 -27 -2 -22 -25 0 -5 9 -7 20 -5 14
3 18 -3 18 -25 1 -23 2 -25 11 -11 9 16 11 16 28 0 38 -36 61 -51 61 -41 0 5
5 7 12 3 7 -5 8 -3 4 5 -5 7 -10 10 -12 8 -6 -6 -64 45 -64 56 0 26 191 142
218 132 8 -3 11 -13 7 -25 -4 -11 -2 -20 4 -20 6 0 25 -29 43 -65 17 -36 33
-63 36 -61 2 3 -3 17 -12 33 -38 67 -79 180 -59 160 8 -9 43 89 43 120 0 22 1
22 48 -11 26 -19 59 -47 75 -61 15 -15 27 -23 27 -18 0 13 -38 53 -68 73 -13
8 -24 22 -26 30 -2 8 -10 31 -19 50 -8 19 -19 63 -24 97 -11 69 -14 64 55 78
29 6 32 4 32 -17 1 -13 7 -36 15 -53 15 -30 15 -29 9 20 l-6 50 29 -26 c15
-14 41 -37 56 -51 29 -25 32 -37 24 -102 -3 -28 -13 -45 -36 -63 l-31 -25 -46
26 c-53 30 -61 32 -44 11 15 -18 68 -45 87 -45 8 0 11 -5 8 -11 -11 -17 3 -53
24 -66 17 -11 19 -10 15 2 -4 8 -1 15 6 15 10 0 10 3 0 15 -7 9 -10 19 -6 23
4 4 13 -1 20 -11 7 -9 21 -17 30 -17 19 0 21 -11 4 -30 -11 -12 -10 -12 5 -1
9 7 17 20 17 28 0 8 5 11 12 7 14 -9 5 8 -29 53 -16 23 -29 30 -41 26 -9 -3
-14 -3 -10 2 14 15 58 14 58 -2 0 -8 16 -29 35 -47 26 -25 32 -35 23 -44 -16
-16 -2 -15 58 3 27 8 61 15 75 15 15 0 43 7 62 15 51 21 55 20 68 -24 9 -32 9
-42 -5 -63 -15 -23 -15 -25 4 -23 11 1 22 4 26 8 3 3 19 -3 34 -15 51 -37 85
-15 153 101 18 30 37 56 43 58 7 2 17 -10 22 -27 7 -17 7 -28 2 -25 -6 3 -7
-1 -4 -9 3 -9 9 -16 13 -16 12 0 41 -69 41 -97 0 -14 -18 -66 -40 -115 -23
-50 -43 -104 -46 -122 -3 -24 -2 -26 5 -11 7 17 11 10 26 -40 9 -33 23 -82 31
-109 16 -56 18 -114 5 -134 -5 -8 -33 -22 -62 -32 -30 -9 -55 -22 -55 -29 -1
-6 -2 -26 -3 -44 -1 -44 -29 -57 -129 -58 l-77 -1 50 -9 c28 -5 65 -7 83 -4
27 5 32 3 32 -14 0 -11 -8 -22 -19 -26 -10 -3 -18 -11 -18 -18 1 -7 -5 -38
-12 -69 -12 -51 -16 -56 -30 -45 -14 10 -14 10 -3 -5 7 -9 18 -29 23 -45 l9
-28 -4 27 c-4 34 7 28 24 -13 9 -20 10 -33 3 -37 -5 -4 -13 -16 -17 -27 -4
-11 -4 -16 0 -12 4 4 13 2 21 -4 10 -9 13 -8 13 0 0 7 5 9 11 5 8 -5 8 -9 -1
-14 -6 -4 -11 -10 -11 -14 3 -24 -2 -27 -12 -6 -11 25 -11 25 -15 -10 -2 -19
-8 -41 -14 -47 -13 -17 5 -17 34 -2 18 9 20 9 15 -4 -3 -9 -1 -18 6 -21 9 -3
8 -7 -3 -15 -42 -29 -50 -36 -50 -46 1 -5 21 -35 46 -65 71 -88 129 -163 146
-191 17 -26 17 -27 -5 -22 -12 3 -32 15 -44 26 -20 18 -23 18 -23 4 0 -10 -5
-14 -15 -11 -11 5 -15 -1 -15 -22 l0 -28 -30 34 c-16 18 -37 43 -45 54 -9 12
-14 14 -12 6 3 -9 10 -42 17 -75 7 -33 16 -62 20 -65 10 -7 120 -151 121 -159
2 -22 10 -52 19 -77 11 -28 12 -29 26 -9 8 11 20 20 26 20 6 0 18 15 25 33 8
19 10 31 4 28 -5 -3 -11 3 -14 15 -7 25 17 36 38 19 21 -17 67 12 58 38 -9 24
-36 66 -47 74 -6 4 -7 10 -3 14 4 4 18 -3 32 -16 32 -30 32 -13 0 49 -28 56
-54 72 -62 40 -5 -16 -12 -6 -35 46 -16 36 -28 74 -26 83 5 29 47 27 79 -4 28
-27 29 -27 29 -6 0 27 8 27 40 2 30 -24 55 -26 46 -5 -3 8 -9 22 -12 30 -11
26 42 29 104 5 124 -48 143 -53 154 -42 8 8 8 19 -2 39 -8 16 -16 32 -19 37
-2 5 16 6 43 3 35 -5 46 -3 46 7 0 18 128 11 188 -11 34 -12 43 -19 39 -34 -3
-10 0 -20 7 -22 6 -3 1 -13 -13 -26 -28 -25 -31 -25 -56 -8 -26 18 -57 29 -51
19 3 -5 -4 -16 -15 -26 -15 -13 -24 -14 -34 -6 -9 8 -14 6 -19 -5 -3 -9 -35
-30 -71 -46 -66 -31 -86 -55 -100 -119 -4 -18 -21 -41 -42 -57 -29 -23 -34
-31 -29 -56 3 -15 26 -54 51 -86 25 -31 45 -63 45 -71 0 -8 12 -31 26 -52 32
-46 75 -52 106 -16 17 20 19 32 13 89 -6 61 -5 67 12 66 14 -2 19 7 23 43 l5
45 22 -24 c13 -14 26 -34 29 -45 4 -12 10 -23 14 -26 4 -3 17 -24 28 -46 37
-72 70 -104 108 -104 19 0 34 -4 34 -10 0 -6 40 -10 99 -10 79 0 100 3 105 15
7 20 -19 172 -40 228 -29 80 -44 130 -44 152 0 23 -76 185 -92 196 -5 3 -4 18
2 33 17 45 12 73 -19 98 -27 23 -28 25 -10 36 23 15 91 15 139 2 43 -12 95
-86 170 -242 l50 -103 0 156 c0 109 -4 159 -12 167 -17 17 -18 82 -1 82 11 0
13 63 13 345 0 190 -2 345 -4 345 -17 0 -151 -58 -188 -81 -65 -42 -77 -58
-55 -74 16 -12 16 -15 -10 -45 l-27 -33 22 -15 c66 -44 -19 -110 -127 -98
-105 12 -109 14 -148 74 -21 31 -70 91 -109 133 -40 42 -77 86 -83 98 -7 12
-17 18 -23 15 -6 -4 -8 -3 -4 4 3 6 -16 41 -44 78 -49 65 -54 76 -51 101 1 7
-8 18 -19 25 -24 15 -61 82 -97 177 -24 63 -105 361 -98 361 15 0 105 -46 124
-63 72 -66 92 -209 46 -321 -13 -33 -22 -62 -20 -64 8 -9 54 102 61 145 3 24
10 43 15 43 10 0 28 -64 30 -105 l1 -30 8 30 8 30 2 -35 c1 -29 3 -32 10 -15
19 45 11 115 -24 190 -32 70 -104 176 -111 165 -2 -3 -7 -1 -12 4 -5 5 -2 6 6
1 17 -10 14 -3 -29 65 -19 30 -35 57 -35 60 0 3 25 8 55 11 l55 6 -63 1 c-61
2 -63 3 -79 36 -15 32 -15 43 0 138 9 57 14 119 12 137 -3 24 -47 110 -80 159
-1 1 -9 0 -18 -4 -14 -5 -11 -11 15 -37 68 -69 80 -118 57 -226 -14 -67 -26
-72 -33 -14 -8 69 -36 183 -54 221 -14 27 -21 32 -52 32 -102 0 -230 232 -229
415 l0 60 19 -48 c10 -27 36 -72 58 -101 48 -63 175 -161 220 -169 17 -4 32
-5 32 -2 0 2 -8 26 -18 52 -11 26 -24 89 -31 138 -6 50 -18 104 -25 120 -8 17
-23 51 -34 76 -24 55 -130 188 -183 231 -31 25 -43 45 -65 112 -28 85 -72 176
-85 176 -4 0 8 -30 27 -66 24 -46 34 -79 34 -110 0 -24 -2 -44 -5 -44 -3 0
-43 16 -90 35 -61 25 -97 35 -127 33 l-43 -3 3 34 c2 19 10 53 17 77 13 43 13
44 -10 44 -16 0 -32 -14 -54 -47z m26 -205 c-61 -76 -85 -117 -112 -199 -28
-81 -31 -145 -10 -173 16 -21 17 -21 33 9 9 16 11 9 12 -44 0 -50 -3 -62 -14
-58 -7 3 -19 0 -25 -6 -16 -16 -31 8 -31 53 -1 31 -2 33 -12 15 -7 -12 -12
-76 -12 -166 -1 -81 -4 -145 -8 -142 -5 2 -8 18 -8 35 0 35 -12 31 -15 -5 -2
-13 -8 -21 -16 -19 -8 2 -3 -7 11 -20 14 -14 28 -23 32 -21 4 2 7 -11 6 -29
-1 -19 14 -79 32 -133 36 -107 52 -129 145 -195 27 -19 54 -45 61 -57 6 -13
18 -31 28 -42 19 -21 18 -23 -121 -96 l-72 -38 -70 57 c-82 67 -175 165 -196
207 -9 17 -13 40 -9 56 4 21 3 24 -5 13 -15 -22 -34 36 -27 85 3 22 6 47 7 55
4 35 38 54 40 23 0 -14 2 -13 9 5 15 36 20 23 11 -31 0 -5 -5 -6 -10 -3 -5 3
-9 -10 -8 -29 1 -21 4 -30 9 -22 4 7 8 -12 8 -43 0 -30 5 -62 11 -70 8 -11 9
1 4 45 -5 55 -4 58 9 40 15 -19 15 -19 16 -1 0 15 5 17 30 13 30 -6 60 12 60
36 0 6 -7 1 -16 -11 -8 -12 -20 -22 -26 -22 -6 0 -4 8 5 18 10 10 17 23 17 28
0 4 -7 -2 -16 -14 -8 -12 -24 -22 -34 -22 -19 0 -36 32 -25 50 8 13 46 13 79
0 23 -8 26 -7 26 11 0 17 3 19 14 10 12 -10 13 -8 9 8 -3 13 -26 31 -58 46
-53 25 -53 25 -42 55 6 16 17 30 24 30 15 0 17 17 3 22 -6 2 -2 26 10 60 11
32 20 64 20 73 0 8 4 15 9 15 5 0 12 30 16 68 19 209 83 369 198 490 45 47 43
39 -6 -20z m-50 -300 c-3 -7 -5 -2 -5 12 0 14 2 19 5 13 2 -7 2 -19 0 -25z
m26 -105 c4 -59 3 -93 -3 -93 -6 0 -10 40 -10 97 0 53 2 94 4 92 2 -2 6 -46 9
-96z m-212 60 c-12 -20 -14 -14 -5 12 4 9 9 14 11 11 3 -2 0 -13 -6 -23z m-27
-77 c-9 -26 -18 -45 -20 -43 -2 2 3 25 12 51 9 26 18 45 20 43 2 -2 -3 -25
-12 -51z m303 -68 c-3 -8 -6 -5 -6 6 -1 11 2 17 5 13 3 -3 4 -12 1 -19z m142
-177 c11 -35 20 -67 19 -70 -1 -3 4 -19 10 -34 21 -49 16 -55 -45 -59 -32 -2
-59 -4 -59 -3 -1 0 -4 16 -8 36 l-6 37 47 11 48 10 -47 -4 -48 -5 0 46 c0 37
23 132 48 194 3 8 9 -10 13 -40 4 -30 17 -84 28 -119z m-483 31 c-9 -33 -16
-74 -16 -90 0 -17 -5 -34 -12 -38 -8 -5 -9 5 -4 37 9 57 38 161 43 155 2 -2
-3 -31 -11 -64z m351 36 c-3 -8 -6 -5 -6 6 -1 11 2 17 5 13 3 -3 4 -12 1 -19z
m-182 -137 c2 -18 7 -36 11 -40 4 -3 4 2 1 12 -4 9 -3 17 1 17 7 0 41 -94 46
-125 1 -6 12 -25 25 -43 27 -39 93 -163 88 -168 -1 -2 -30 14 -62 35 -55 34
-62 42 -83 102 -21 59 -63 280 -61 319 1 21 28 -67 34 -109z m192 72 c-3 -10
-5 -2 -5 17 0 19 2 27 5 18 2 -10 2 -26 0 -35z m-508 -68 c-37 -123 -67 -268
-79 -377 l-9 -83 4 90 c2 50 13 133 25 185 21 101 79 295 85 288 2 -2 -10 -48
-26 -103z m519 -57 c5 -35 5 -63 -1 -74 -7 -11 -6 -15 1 -10 7 4 13 -6 16 -26
21 -120 24 -133 25 -101 l1 33 45 -7 c45 -6 75 7 75 31 0 6 -5 3 -11 -6 -5
-10 -15 -18 -21 -18 -6 0 -5 7 3 18 13 16 13 16 -7 0 -11 -10 -24 -18 -29 -18
-13 0 -45 32 -45 45 0 17 100 14 118 -2 7 -7 23 -13 35 -14 12 0 31 -5 42 -10
15 -7 8 -8 -23 -4 l-43 5 6 -55 c7 -54 6 -56 -35 -110 -23 -30 -48 -55 -55
-55 -40 0 -101 100 -114 188 -5 31 -9 46 -10 32 -1 -20 -3 -22 -11 -10 -12 19
-13 113 -1 126 5 5 12 29 15 54 3 25 5 47 5 49 2 16 11 -14 19 -61z m-437 9
c-8 -8 -11 -7 -11 4 0 20 13 34 18 19 3 -7 -1 -17 -7 -23z m993 -373 c3 -8 2
-12 -4 -9 -6 3 -10 10 -10 16 0 14 7 11 14 -7z m85 -123 c78 -95 84 -106 19
-37 -31 34 -66 79 -78 101 -11 22 -15 31 -8 21 7 -11 37 -49 67 -85z m-1350
-8 c-37 -76 -77 -133 -91 -133 -12 0 -1 72 19 123 10 25 29 45 56 62 23 13 43
22 46 20 2 -3 -11 -35 -30 -72z m746 30 c-31 -76 -65 -177 -60 -181 5 -6 27
43 47 106 14 46 27 52 50 25 24 -29 28 -40 13 -40 -8 0 -11 5 -8 10 3 6 1 7
-4 4 -6 -4 -8 -19 -5 -33 4 -21 2 -25 -9 -20 -8 4 -5 0 6 -9 20 -17 20 -17 -2
-32 -33 -23 -28 -29 20 -25 47 5 45 -3 -11 -30 l-37 -18 35 6 c33 5 34 4 16
-10 -10 -9 -42 -23 -69 -32 -44 -15 -52 -15 -61 -2 -6 8 -22 15 -35 14 -31 -1
-71 48 -53 66 7 7 12 25 12 41 0 16 5 47 12 69 9 32 20 43 62 64 28 14 55 30
61 35 15 15 28 10 20 -8z m-485 -224 c0 -62 -18 -98 -41 -83 -7 4 -9 3 -5 -4
7 -11 -30 -42 -50 -42 -9 0 -7 13 5 45 9 24 20 47 24 51 4 4 7 17 7 28 0 18 2
19 11 6 9 -12 9 -11 4 5 -4 11 -9 43 -12 70 l-4 50 30 -33 c28 -29 31 -39 31
-93z m557 99 c-3 -8 -6 -5 -6 6 -1 11 2 17 5 13 3 -3 4 -12 1 -19z m452 -28
c0 -10 -3 -8 -9 5 -12 27 -12 43 0 25 5 -8 9 -22 9 -30z m-324 10 c-3 -5 -10
-10 -16 -10 -5 0 -9 5 -9 10 0 6 7 10 16 10 8 0 12 -4 9 -10z m-391 -9 c3 -5
-1 -11 -9 -14 -9 -4 -12 -1 -8 9 6 16 10 17 17 5z m723 -43 c-3 -8 -6 -5 -6 6
-1 11 2 17 5 13 3 -3 4 -12 1 -19z m-313 -30 c-17 -31 -19 -32 -22 -10 -2 15
4 29 15 37 25 19 27 12 7 -27z m63 -71 c-15 -24 -23 -47 -19 -51 3 -4 -5 -3
-20 3 -14 5 -28 7 -31 4 -3 -2 -13 9 -22 26 -16 32 -4 44 14 14 6 -10 11 -13
11 -8 0 6 14 26 31 44 16 18 28 36 25 39 -3 3 0 12 7 20 10 13 13 10 21 -16 7
-25 4 -39 -17 -75z m-867 0 c-14 -36 -32 -64 -51 -77 -37 -27 -37 -19 1 42 17
26 30 50 30 52 0 2 8 21 17 42 26 60 29 10 3 -59z m1127 61 c-3 -8 -6 -5 -6 6
-1 11 2 17 5 13 3 -3 4 -12 1 -19z m-787 7 c0 -2 -10 -10 -22 -16 -21 -11 -22
-11 -9 4 13 16 31 23 31 12z m360 -5 c0 -5 -2 -10 -4 -10 -3 0 -8 5 -11 10 -3
6 -1 10 4 10 6 0 11 -4 11 -10z m-320 -10 c0 -5 -9 -10 -21 -10 -11 0 -17 5
-14 10 3 6 13 10 21 10 8 0 14 -4 14 -10z m-64 -40 c0 -12 -4 -16 -9 -11 -5 5
-6 14 -3 20 10 15 12 14 12 -9z m814 -152 l-10 -33 5 34 c3 18 6 61 7 95 l2
61 3 -62 c2 -34 -1 -77 -7 -95z m-1594 77 c-39 -88 -49 -133 -48 -219 1 -76
23 -169 43 -181 5 -4 14 -16 20 -28 12 -22 12 -22 -9 -4 -35 32 -64 115 -66
188 0 37 -4 65 -8 62 -5 -2 -8 -11 -8 -20 0 -9 -3 -13 -6 -10 -4 3 4 35 16 69
39 107 82 209 87 205 2 -3 -8 -30 -21 -62z m1214 41 c0 -19 48 -49 90 -56 35
-6 35 -6 12 -19 -35 -19 -76 2 -102 50 -22 44 -25 53 -10 44 6 -3 10 -12 10
-19z m-1307 -88 c-6 -92 -13 -103 -130 -228 l-52 -55 -1 46 c0 60 15 103 58
164 29 41 123 154 129 155 0 0 -1 -37 -4 -82z m1662 -124 c-8 -20 -18 -35 -20
-32 -3 3 1 18 10 34 8 16 15 36 16 44 0 9 3 10 5 3 3 -6 -2 -28 -11 -49z m-35
-63 c-5 -11 -15 -23 -21 -27 -6 -3 -3 5 6 20 20 30 30 35 15 7z m-1630 -40
c-6 -23 -15 -77 -20 -119 l-9 -77 4 75 c3 73 23 175 32 166 2 -2 -1 -23 -7
-45z m-290 -131 c0 -5 -7 -10 -15 -10 -8 0 -15 5 -15 10 0 6 7 10 15 10 8 0
15 -4 15 -10z m47 -32 c-3 -7 -5 -2 -5 12 0 14 2 19 5 13 2 -7 2 -19 0 -25z
m2020 -25 c-3 -10 -5 -4 -5 12 0 17 2 24 5 18 2 -7 2 -21 0 -30z m-1479 -24
c13 -16 19 -29 13 -29 -6 0 -11 4 -11 9 0 5 -9 13 -20 16 -11 3 -20 13 -20 21
0 21 12 16 38 -17z m1620 1 c18 -11 39 -20 47 -20 8 0 15 -4 15 -10 0 -5 21
-23 46 -41 78 -53 151 -136 178 -202 l15 -38 -119 4 c-66 3 -120 2 -120 -2 0
-4 6 -16 14 -27 14 -17 11 -23 -32 -66 -25 -27 -51 -48 -58 -48 -7 0 -21 50
-34 123 -12 67 -29 142 -36 167 -7 24 -11 46 -9 48 6 6 34 -27 87 -102 23 -32
44 -53 46 -47 2 6 8 9 13 5 5 -3 9 0 9 6 0 6 5 8 10 5 19 -12 9 10 -59 138
-38 70 -64 127 -57 127 6 0 26 -9 44 -20z m-131 -127 c-2 -21 -4 -4 -4 37 0
41 2 58 4 38 2 -21 2 -55 0 -75z m-17 -109 c-7 -24 -16 -47 -21 -50 -5 -2 -2
14 6 37 8 23 15 51 16 63 0 12 3 15 6 8 3 -8 0 -34 -7 -58z m-1320 4 c0 -12
-1 -19 -3 -17 -1 2 -9 12 -16 22 -12 14 -11 17 3 17 10 0 16 -8 16 -22z
m-1036 -144 c9 -3 16 -12 16 -20 0 -8 9 -14 19 -14 33 0 31 -14 -10 -65 -38
-48 -39 -52 -34 -109 2 -32 10 -65 17 -73 9 -11 6 -25 -13 -63 -23 -48 -33
-55 -74 -50 -48 5 -57 34 -22 77 13 15 27 39 30 53 8 33 -7 95 -27 115 -20 20
-12 63 15 87 10 9 19 19 19 23 0 5 40 43 47 45 1 0 8 -3 17 -6z m28 -375 c-8
-20 -72 -68 -72 -54 0 13 48 64 54 58 3 -4 6 -1 6 5 0 7 4 12 10 12 5 0 6 -9
2 -21z m2926 -121 c17 -14 15 -28 -3 -28 -8 0 -15 4 -15 9 0 5 -9 11 -20 14
-11 3 -20 10 -20 17 0 12 36 5 58 -12z"/>
<path d="M1910 2985 c0 -14 4 -25 9 -25 4 0 6 11 3 25 -2 14 -6 25 -8 25 -2 0
-4 -11 -4 -25z"/>
<path d="M2068 2636 c14 -30 28 -54 30 -52 4 5 -38 95 -49 101 -4 3 4 -19 19
-49z"/>
<path d="M2098 2183 c7 -3 16 -2 19 1 4 3 -2 6 -13 5 -11 0 -14 -3 -6 -6z"/>
<path d="M1779 3573 c-13 -16 -12 -17 4 -4 16 13 21 21 13 21 -2 0 -10 -8 -17
-17z"/>
<path d="M1586 3345 c-9 -26 -7 -32 5 -12 6 10 9 21 6 23 -2 3 -7 -2 -11 -11z"/>
<path d="M1723 3148 c-5 -7 -26 -40 -46 -74 -20 -33 -45 -68 -57 -79 -11 -10
-20 -23 -20 -28 0 -6 14 2 30 18 31 29 114 164 107 172 -2 2 -9 -2 -14 -9z"/>
<path d="M2490 3087 c0 -15 36 -118 49 -140 9 -16 39 -45 66 -66 79 -59 84
-59 23 3 -32 32 -57 61 -56 64 3 8 -71 142 -78 142 -2 0 -4 -1 -4 -3z"/>
<path d="M1159 2463 c-32 -22 -39 -33 -39 -63 0 -14 -11 -72 -24 -130 -13 -58
-22 -107 -20 -109 11 -12 27 23 31 66 5 65 29 149 59 202 13 24 23 46 21 47
-2 2 -14 -4 -28 -13z"/>
<path d="M1797 2323 c5 -22 53 -74 53 -57 0 5 -13 25 -29 44 -24 28 -29 30
-24 13z"/>
<path d="M3037 2303 c10 -18 20 -28 22 -22 2 6 -6 21 -19 33 l-21 21 18 -32z"/>
<path d="M1470 2016 c0 -14 4 -27 8 -30 5 -3 6 8 4 25 -5 35 -12 38 -12 5z"/>
<path d="M2349 1923 c-13 -16 -12 -17 4 -4 9 7 17 15 17 17 0 8 -8 3 -21 -13z"/>
<path d="M2012 1913 c1 -10 -1 -31 -5 -48 -5 -25 -3 -24 13 10 23 50 24 55 6
55 -8 0 -14 -8 -14 -17z"/>
<path d="M2076 1915 c4 -8 7 -15 9 -15 2 0 5 7 9 15 3 9 0 15 -9 15 -9 0 -12
-6 -9 -15z"/>
<path d="M1923 1870 c-13 -5 -23 -11 -23 -14 0 -7 40 6 46 15 6 10 6 10 -23
-1z"/>
<path d="M2276 1838 c-20 -23 -36 -46 -36 -51 0 -6 1 -8 3 -6 1 2 20 25 41 52
46 58 41 62 -8 5z"/>
<path d="M2500 1814 c-12 -19 -20 -38 -17 -40 3 -3 15 12 27 35 25 50 19 54
-10 5z"/>
<path d="M3024 1784 c-9 -21 -23 -47 -32 -57 -12 -13 -13 -20 -4 -29 8 -8 14
-5 20 13 5 13 17 42 26 63 9 22 14 41 11 44 -2 3 -12 -12 -21 -34z"/>
<path d="M1840 1791 c-7 -11 -18 -17 -23 -14 -6 3 -7 1 -3 -5 4 -7 1 -12 -8
-12 -9 0 -16 -5 -16 -11 0 -5 4 -8 9 -4 5 3 11 -3 14 -12 3 -16 5 -16 12 2 5
11 17 32 27 48 22 30 10 38 -12 8z"/>
<path d="M1470 1793 c0 -6 9 -21 21 -34 l20 -24 -17 30 c-24 39 -24 40 -24 28z"/>
<path d="M2053 1733 c-14 -63 -17 -173 -3 -173 5 0 10 11 10 24 0 13 7 43 15
66 19 53 19 63 0 30 -14 -25 -14 -24 -15 17 0 23 5 43 12 45 8 3 8 9 2 21 -8
14 -12 8 -21 -30z"/>
<path d="M2154 1755 c-3 -8 -4 -20 -2 -27 3 -7 7 -1 10 15 6 29 1 36 -8 12z"/>
<path d="M2195 1760 c-3 -6 1 -7 9 -4 18 7 21 14 7 14 -6 0 -13 -4 -16 -10z"/>
<path d="M2466 1745 c-3 -8 -1 -15 4 -15 6 0 10 7 10 15 0 8 -2 15 -4 15 -2 0
-6 -7 -10 -15z"/>
<path d="M1398 1682 c-12 -34 -14 -58 -8 -87 l8 -40 1 45 c1 25 6 62 12 83 15
56 6 55 -13 -1z"/>
<path d="M1530 1716 c0 -2 8 -10 18 -17 15 -13 16 -12 3 4 -13 16 -21 21 -21
13z"/>
<path d="M1781 1704 c0 -11 3 -14 6 -6 3 7 2 16 -1 19 -3 4 -6 -2 -5 -13z"/>
<path d="M2470 1706 c0 -8 15 -16 33 -19 17 -3 41 -9 52 -13 18 -6 18 -5 5 9
-22 22 -90 39 -90 23z"/>
<path d="M1590 1671 c0 -5 7 -12 16 -15 14 -5 15 -4 4 9 -14 17 -20 19 -20 6z"/>
<path d="M1780 1666 c0 -8 4 -17 9 -20 5 -4 7 3 4 14 -6 23 -13 26 -13 6z"/>
<path d="M2455 1667 c-45 -15 -53 -24 -52 -63 1 -33 1 -34 14 -12 15 28 16 41
3 33 -5 -3 -10 -1 -10 4 0 6 13 11 29 11 33 0 41 -17 41 -92 0 -99 -92 -268
-156 -284 -25 -6 -24 -24 2 -24 8 0 13 4 9 10 -3 5 13 14 35 21 22 7 40 16 40
20 0 5 -8 6 -17 2 -14 -5 -15 -3 -7 6 9 10 16 10 31 1 14 -9 29 -9 61 -1 23 7
42 13 42 15 0 2 -22 3 -50 2 -27 0 -51 3 -52 9 -2 5 4 10 12 10 21 0 92 26 87
32 -3 2 -22 -3 -42 -11 -21 -9 -40 -16 -42 -16 -3 0 16 26 41 57 35 44 43 61
35 74 -5 10 -8 56 -7 104 1 47 -3 89 -8 94 -5 5 -22 4 -39 -2z"/>
<path d="M2530 1649 c0 -5 9 -9 20 -9 11 0 20 2 20 4 0 2 -9 6 -20 9 -11 3
-20 1 -20 -4z"/>
<path d="M1786 1605 c4 -8 8 -15 10 -15 2 0 4 7 4 15 0 8 -4 15 -10 15 -5 0
-7 -7 -4 -15z"/>
<path d="M1792 1537 c-9 -10 -9 -17 -3 -22 6 -3 15 -24 21 -46 13 -47 -3 -82
-46 -101 -13 -6 -24 -15 -24 -20 0 -6 20 2 45 15 l45 26 6 -25 c3 -13 10 -24
14 -24 6 0 -20 120 -43 204 -2 4 -8 1 -15 -7z"/>
<path d="M2124 1522 c-25 -16 -83 -129 -77 -150 3 -12 9 -22 13 -22 5 0 11 -8
15 -19 3 -10 23 -37 45 -59 45 -45 199 -156 207 -149 3 3 -12 17 -34 31 -21
14 -55 37 -75 51 -21 14 -38 28 -38 31 0 4 12 -2 28 -12 15 -10 56 -33 92 -51
35 -18 59 -33 52 -33 -7 0 -12 -5 -12 -10 0 -7 6 -7 20 0 23 12 27 1 10 -30
-8 -15 -6 -21 9 -30 26 -13 40 -13 21 1 -12 9 -11 10 7 6 15 -3 20 -1 16 9 -3
8 -1 14 5 14 8 0 32 50 32 65 0 2 -18 -2 -39 -7 -36 -9 -46 -7 -111 28 -47 25
-67 40 -58 45 7 4 17 4 23 0 5 -5 28 -11 50 -14 22 -4 33 -4 25 0 -8 3 -30 12
-48 20 -17 9 -42 13 -54 9 -38 -9 -97 15 -133 56 -42 46 -43 60 -7 88 15 12
21 19 15 15 -7 -3 -13 -1 -13 5 0 8 -6 8 -20 0 -11 -6 -20 -9 -20 -7 0 14 31
76 50 100 22 28 23 32 4 19z"/>
<path d="M1690 1425 c0 -8 7 -15 15 -15 8 0 15 -5 15 -12 0 -6 3 -9 6 -6 8 8
-14 48 -26 48 -6 0 -10 -7 -10 -15z"/>
<path d="M2223 1342 c-30 -42 -38 -56 -25 -48 5 3 12 2 14 -3 1 -5 15 8 30 29
21 29 25 39 14 43 -7 3 -22 -7 -33 -21z"/>
<path d="M1879 1288 c18 -18 44 -55 58 -83 14 -27 40 -73 58 -101 18 -28 36
-61 40 -74 4 -12 16 -41 27 -64 15 -33 18 -35 12 -11 -4 17 -7 39 -8 50 -1 11
-20 47 -42 80 -23 33 -51 80 -64 105 -27 53 -88 130 -103 130 -6 0 4 -14 22
-32z"/>
<path d="M1812 1090 c0 -19 2 -27 5 -17 2 9 2 25 0 35 -3 9 -5 1 -5 -18z"/>
<path d="M1893 1056 c3 -8 9 -31 13 -50 3 -20 11 -39 16 -42 7 -4 7 6 3 27
-10 45 -23 79 -31 79 -3 0 -4 -6 -1 -14z"/>
<path d="M1803 990 c0 -25 2 -35 4 -22 2 12 2 32 0 45 -2 12 -4 2 -4 -23z"/>
<path d="M2070 1005 c0 -15 78 -95 93 -95 7 0 -1 12 -18 26 -16 14 -40 38 -52
52 -13 15 -23 22 -23 17z"/>
<path d="M1543 973 c4 -4 20 -9 35 -11 15 -2 30 -9 34 -15 5 -8 8 -5 8 9 0 17
-7 21 -42 23 -23 1 -39 -1 -35 -6z"/>
<path d="M2165 852 c0 -20 3 -42 7 -48 10 -15 -68 -87 -159 -148 -40 -26 -73
-49 -73 -51 0 -2 21 5 48 14 26 10 53 16 59 14 6 -2 27 4 45 13 29 15 31 15
20 1 -8 -9 -10 -22 -6 -28 4 -7 3 -9 -4 -5 -10 6 -47 -44 -54 -74 -2 -8 -5
-17 -8 -20 -9 -9 -56 -75 -65 -90 -22 -42 155 147 207 220 72 100 81 110 76
90 -2 -8 -22 -43 -46 -78 -23 -35 -39 -68 -36 -74 4 -6 3 -8 -3 -5 -6 4 -15
-5 -22 -20 -14 -30 -9 -40 9 -18 11 13 14 12 30 -7 18 -22 18 -22 39 49 31
103 46 106 37 7 -4 -43 -9 -115 -11 -159 -2 -44 -9 -140 -15 -213 -13 -140
-10 -184 15 -208 17 -18 18 -13 20 201 1 138 11 207 26 184 11 -18 12 -59 1
-59 -9 0 2 -102 12 -119 4 -5 15 -8 26 -6 11 2 22 0 25 -6 4 -5 11 -9 16 -9 6
0 1 11 -10 25 -21 27 -26 48 -35 130 l-6 50 20 -40 c11 -22 18 -31 15 -20 -53
179 -71 356 -42 412 13 24 14 33 4 37 -6 2 -3 4 8 4 11 -1 40 0 65 2 l45 2
-60 12 c-59 12 -60 12 -90 -16 -40 -36 -58 -35 -73 5 -7 17 -22 44 -35 59
l-22 27 0 -37z m135 -82 c0 -5 -5 -10 -11 -10 -5 0 -7 5 -4 10 3 6 8 10 11 10
2 0 4 -4 4 -10z m-2 -103 c1 -45 4 -104 7 -132 4 -44 3 -46 -5 -15 -17 68 -22
230 -7 230 1 0 3 -37 5 -83z m-90 53 c-7 -11 -16 -20 -21 -20 -4 0 -5 -5 -1
-12 5 -7 3 -8 -5 -3 -9 5 -7 13 10 31 27 29 33 31 17 4z m-38 -51 c0 -6 -4 -7
-10 -4 -5 3 -10 11 -10 16 0 6 5 7 10 4 6 -3 10 -11 10 -16z m-16 -28 c3 -4
-4 -17 -17 -27 l-22 -19 20 24 c18 22 18 24 2 18 -11 -4 -16 -3 -12 3 8 12 22
13 29 1z m-44 -62 c0 -6 -4 -7 -10 -4 -5 3 -10 11 -10 16 0 6 5 7 10 4 6 -3
10 -11 10 -16z m-39 -42 c-10 -9 -11 -8 -5 6 3 10 9 15 12 12 3 -3 0 -11 -7
-18z m216 -99 c-3 -7 -5 -2 -5 12 0 14 2 19 5 13 2 -7 2 -19 0 -25z"/>
<path d="M1697 858 c18 -20 43 -24 43 -7 0 8 12 10 35 6 26 -4 35 -2 35 9 0
11 -14 13 -64 11 -61 -2 -64 -3 -49 -19z"/>
<path d="M1904 819 c-3 -6 -20 -9 -36 -7 -26 4 -27 3 -14 -11 14 -13 19 -13
48 1 18 8 46 14 63 12 22 -2 26 -1 15 6 -21 13 -67 12 -76 -1z"/>
<path d="M2100 790 c-52 -22 -47 -25 16 -9 24 6 44 15 44 20 0 12 -6 10 -60
-11z"/>
<path d="M1649 652 c17 -22 38 -45 48 -53 10 -8 -2 10 -26 39 -49 60 -68 71
-22 14z"/>
<path d="M1075 660 c3 -5 11 -10 16 -10 6 0 7 5 4 10 -3 6 -11 10 -16 10 -6 0
-7 -4 -4 -10z"/>
<path d="M1283 563 c-16 -27 -37 -61 -48 -78 l-18 -30 25 29 c25 30 83 126 75
126 -2 0 -17 -21 -34 -47z"/>
<path d="M1980 585 c-25 -13 -41 -24 -37 -25 11 0 87 39 87 45 0 7 0 7 -50
-20z"/>
<path d="M2870 443 c0 -5 5 -15 10 -23 8 -12 10 -11 10 8 0 12 -4 22 -10 22
-5 0 -10 -3 -10 -7z"/>
<path d="M1934 388 l-19 -23 23 19 c21 18 27 26 19 26 -2 0 -12 -10 -23 -22z"/>
<path d="M1109 308 c-12 -23 -12 -23 10 -4 23 21 26 26 11 26 -5 0 -15 -10
-21 -22z"/>
<path d="M2507 235 c-10 -21 -23 -43 -30 -47 -8 -5 -6 -8 6 -8 10 0 15 -4 12
-10 -3 -5 -2 -10 4 -10 13 0 33 64 29 92 -3 20 -6 18 -21 -17z"/>
<path d="M1694 135 c-48 -52 -93 -104 -101 -115 -13 -18 -12 -20 4 -19 10 0
37 26 60 57 23 31 63 83 88 115 26 31 44 57 42 57 -3 0 -45 -43 -93 -95z"/>
<path d="M2426 206 c4 -10 1 -16 -7 -16 -9 0 -7 -4 4 -11 10 -6 21 -8 24 -5 4
3 1 6 -5 6 -6 0 -9 6 -6 14 3 8 1 17 -5 21 -7 3 -8 0 -5 -9z"/>
<path d="M2895 187 c-15 -42 77 -187 118 -187 22 0 22 12 -4 63 -50 97 -103
156 -114 124z"/>
<path d="M687 176 c-4 -10 -12 -14 -18 -10 -7 4 -9 3 -5 -4 3 -5 0 -13 -6 -15
-7 -3 -8 -6 -3 -6 17 -1 47 27 43 40 -3 9 -7 7 -11 -5z"/>
<path d="M717 133 c-12 -12 -7 -22 8 -17 9 4 36 -16 73 -55 50 -52 64 -61 94
-61 31 0 36 4 41 27 7 36 -14 53 -65 53 -38 0 -110 29 -123 50 -7 12 -19 13
-28 3z"/>
<path d="M1866 54 c-9 -24 -7 -54 4 -54 6 0 10 16 10 35 0 38 -4 44 -14 19z"/>
</g>
</svg>
